{
  "asset": {
    "version": "2.0",
    "generator": "MOSIM Unity glTF generator",
    "copyright": "MIT license"
  },
  "scene": 0,
  "scenes": [
    {
      "name": "My scene",
      "nodes": [
        0
      ]
    }
  ],
  "nodes": [
    {
      "name": "Ratchet",
      "mesh": 0,
      "rotation": [
        0.0,
        0.0,
        0.0,
        1.0
      ],
      "scale": [
        0.05,
        0.1,
        0.05
      ],
      "translation": [
        2.83,
        0.93,
        -1.629
      ],
      "extras": {
        "TaskEditorLocalID": 2,
        "TaskEditorID": 0,
        "Type": "Tool",
        "Tool": "Ratchet",
        "StationRef": 0,
        "GroupRef": 0
      }
    }
  ],
  "bufferViews": [
    {
      "buffer": 0,
      "byteOffset": 0,
      "byteLength": 1056,
      "target": 34962
    },
    {
      "buffer": 1,
      "byteOffset": 0,
      "byteLength": 1056,
      "target": 34962
    },
    {
      "buffer": 2,
      "byteOffset": 0,
      "byteLength": 960,
      "target": 34963
    }
  ],
  "buffers": [
    {
      "byteLength": 1056,
      "uri": "data:application/octet-stream;base64,"
    },
    {
      "byteLength": 1056,
      "uri": "data:application/octet-stream;base64,"
    },
    {
      "byteLength": 960,
      "uri": "data:application/octet-stream;base64,"
    }
  ],
  "accessors": [
    {
      "bufferView": 0,
      "byteOffset": 0,
      "componentType": 5126,
      "count": 88,
      "min": [
        -0.5000001,
        -1.0,
        -0.500000238
      ],
      "max": [
        0.5,
        1.0,
        0.50000006
      ],
      "type": "VEC3"
    },
    {
      "bufferView": 1,
      "byteOffset": 0,
      "componentType": 5126,
      "count": 88,
      "min": [
        -1.0,
        -1.0,
        -1.0
      ],
      "max": [
        1.0,
        1.0,
        1.0
      ],
      "type": "VEC3"
    },
    {
      "bufferView": 2,
      "byteOffset": 0,
      "componentType": 5125,
      "count": 240,
      "min": [
        0
      ],
      "max": [
        87
      ],
      "type": "SCALAR"
    }
  ],
  "meshes": [
    {
      "primitives": [
        {
          "attributes": {
            "NORMAL": 1,
            "POSITION": 0
          },
          "indices": 2,
          "mode": 4,
          "material": 1
        }
      ]
    }
  ],
  "materials": [
    {
      "pbrMetallicRoughness": {
        "baseColorFactor": [
          0.8,
          0.0,
          0.0,
          1.0
        ],
        "metallicFactor": 0.0,
        "roughnessFactor": 0.0
      },
      "name": "Default"
    },
    {
      "pbrMetallicRoughness": {
        "baseColorFactor": [
          1.0,
          0.385275662,
          0.0,
          1.0
        ],
        "metallicFactor": 0.0,
        "roughnessFactor": 0.5
      },
      "name": "Block_2"
    }
  ]
}